<svg preserveAspectRatio="none" overflow="visible" style="display: block;" width="23" height="23" viewBox="0 0 23 23" fill="none" xmlns="http://www.w3.org/2000/svg">
<g id="h2d-svg-use-0">
<path id="Vector" d="M19.9333 5.36667C19.0173 4.45375 17.7767 3.94113 16.4833 3.94113C15.19 3.94113 13.9494 4.45375 13.0333 5.36667L11.5 6.90001L9.96668 5.36667C9.03497 4.53866 7.8221 4.09791 6.57616 4.13458C5.33022 4.17126 4.14538 4.68259 3.26399 5.56398C2.3826 6.44538 1.87127 7.63022 1.83459 8.87616C1.79791 10.1221 2.23866 11.335 3.06668 12.2667L11.5 20.6042L19.9333 12.2667C20.8463 11.3506 21.3589 10.11 21.3589 8.81667C21.3589 7.52336 20.8463 6.28277 19.9333 5.36667Z" stroke="#D5451C" stroke-width="1.62917" stroke-linecap="round" stroke-linejoin="round"/>
</g>
</svg>
