<svg preserveAspectRatio="none" overflow="visible" style="display: block;" width="23" height="23" viewBox="0 0 23 23" fill="none" xmlns="http://www.w3.org/2000/svg">
<g id="h2d-svg-use-0">
<path id="Vector" d="M12.4583 1.91666L3.92916 12.3625C3.86163 12.4581 3.82032 12.5698 3.80933 12.6864C3.79833 12.8029 3.81804 12.9204 3.86649 13.027C3.91494 13.1336 3.99045 13.2256 4.08551 13.294C4.18056 13.3623 4.29186 13.4046 4.40833 13.4167H9.58333L8.62499 21.0833L17.1542 10.6375C17.2217 10.5418 17.263 10.4302 17.274 10.3136C17.285 10.197 17.2653 10.0796 17.2168 9.97302C17.1684 9.86643 17.0929 9.77437 16.9978 9.70601C16.9028 9.63764 16.7915 9.59534 16.675 9.58332H11.5L12.4583 1.91666Z" stroke="white" stroke-width="1.62917" stroke-linecap="round" stroke-linejoin="round"/>
</g>
</svg>
